<mxfile host="app.diagrams.net" modified="2020-08-27T11:53:56.183Z" agent="5.0 (Macintosh; Intel Mac OS X 10_15_6) AppleWebKit/537.36 (KHTML, like Gecko) Chrome/84.0.4147.135 Safari/537.36" etag="hQY7IYznCuKUK-YQLpu-" version="13.6.5" type="github">
  <diagram id="T21u9-CuLx84244G4kkz" name="Page-1">
    <mxGraphModel dx="1298" dy="761" grid="1" gridSize="10" guides="1" tooltips="1" connect="1" arrows="1" fold="1" page="1" pageScale="1" pageWidth="1169" pageHeight="1654" math="0" shadow="0">
      <root>
        <mxCell id="0" />
        <mxCell id="1" parent="0" />
        <mxCell id="Up77bsWCeMannX5gQ--k-12" style="edgeStyle=orthogonalEdgeStyle;rounded=0;orthogonalLoop=1;jettySize=auto;html=1;entryX=0;entryY=0.5;entryDx=0;entryDy=0;" edge="1" parent="1" source="Up77bsWCeMannX5gQ--k-5" target="Up77bsWCeMannX5gQ--k-15">
          <mxGeometry relative="1" as="geometry">
            <mxPoint x="330" y="215" as="targetPoint" />
          </mxGeometry>
        </mxCell>
        <mxCell id="Up77bsWCeMannX5gQ--k-5" value="Info Set 1:&lt;br&gt;&lt;br&gt;News Story" style="shape=parallelogram;perimeter=parallelogramPerimeter;whiteSpace=wrap;html=1;fixedSize=1;" vertex="1" parent="1">
          <mxGeometry x="130" y="185" width="120" height="60" as="geometry" />
        </mxCell>
        <mxCell id="Up77bsWCeMannX5gQ--k-15" value="process 1" style="swimlane;childLayout=stackLayout;horizontal=1;startSize=30;horizontalStack=0;rounded=1;fontSize=14;fontStyle=0;strokeWidth=2;resizeParent=0;resizeLast=1;shadow=0;dashed=0;align=center;" vertex="1" parent="1">
          <mxGeometry x="360" y="170" width="160" height="90" as="geometry" />
        </mxCell>
        <mxCell id="Up77bsWCeMannX5gQ--k-16" value="Registering" style="align=center;strokeColor=none;fillColor=none;spacingLeft=4;fontSize=12;verticalAlign=top;resizable=0;rotatable=0;part=1;" vertex="1" parent="Up77bsWCeMannX5gQ--k-15">
          <mxGeometry y="30" width="160" height="60" as="geometry" />
        </mxCell>
        <mxCell id="Up77bsWCeMannX5gQ--k-18" style="edgeStyle=orthogonalEdgeStyle;rounded=0;orthogonalLoop=1;jettySize=auto;html=1;exitX=0.5;exitY=1;exitDx=0;exitDy=0;" edge="1" parent="Up77bsWCeMannX5gQ--k-15" source="Up77bsWCeMannX5gQ--k-16" target="Up77bsWCeMannX5gQ--k-16">
          <mxGeometry relative="1" as="geometry" />
        </mxCell>
        <mxCell id="Up77bsWCeMannX5gQ--k-27" value="process 1" style="swimlane;childLayout=stackLayout;horizontal=1;startSize=30;horizontalStack=0;rounded=1;fontSize=14;fontStyle=0;strokeWidth=2;resizeParent=0;resizeLast=1;shadow=0;dashed=0;align=center;" vertex="1" parent="1">
          <mxGeometry x="585" y="170" width="160" height="90" as="geometry" />
        </mxCell>
        <mxCell id="Up77bsWCeMannX5gQ--k-28" value="Initial Quality Assurance" style="align=center;strokeColor=none;fillColor=none;spacingLeft=4;fontSize=12;verticalAlign=top;resizable=0;rotatable=0;part=1;" vertex="1" parent="Up77bsWCeMannX5gQ--k-27">
          <mxGeometry y="30" width="160" height="60" as="geometry" />
        </mxCell>
        <mxCell id="Up77bsWCeMannX5gQ--k-29" style="edgeStyle=orthogonalEdgeStyle;rounded=0;orthogonalLoop=1;jettySize=auto;html=1;exitX=0.5;exitY=1;exitDx=0;exitDy=0;" edge="1" parent="Up77bsWCeMannX5gQ--k-27" source="Up77bsWCeMannX5gQ--k-28" target="Up77bsWCeMannX5gQ--k-28">
          <mxGeometry relative="1" as="geometry" />
        </mxCell>
        <mxCell id="Up77bsWCeMannX5gQ--k-33" value="Info Set 2:&lt;br&gt;&lt;br&gt;Notification to user" style="shape=parallelogram;perimeter=parallelogramPerimeter;whiteSpace=wrap;html=1;fixedSize=1;" vertex="1" parent="1">
          <mxGeometry x="130" y="360" width="130" height="60" as="geometry" />
        </mxCell>
        <mxCell id="Up77bsWCeMannX5gQ--k-34" value="Info Set 2:&lt;br&gt;&lt;br&gt;(Finalized)&lt;br&gt;News Story" style="shape=parallelogram;perimeter=parallelogramPerimeter;whiteSpace=wrap;html=1;fixedSize=1;" vertex="1" parent="1">
          <mxGeometry x="120" y="450" width="130" height="60" as="geometry" />
        </mxCell>
        <mxCell id="Up77bsWCeMannX5gQ--k-35" style="edgeStyle=orthogonalEdgeStyle;rounded=0;orthogonalLoop=1;jettySize=auto;html=1;entryX=0;entryY=0.5;entryDx=0;entryDy=0;" edge="1" parent="1" source="Up77bsWCeMannX5gQ--k-16" target="Up77bsWCeMannX5gQ--k-28">
          <mxGeometry relative="1" as="geometry" />
        </mxCell>
        <mxCell id="Up77bsWCeMannX5gQ--k-36" style="edgeStyle=orthogonalEdgeStyle;rounded=0;orthogonalLoop=1;jettySize=auto;html=1;entryX=0;entryY=0.5;entryDx=0;entryDy=0;" edge="1" parent="1" source="Up77bsWCeMannX5gQ--k-28" target="Up77bsWCeMannX5gQ--k-31">
          <mxGeometry relative="1" as="geometry" />
        </mxCell>
        <mxCell id="Up77bsWCeMannX5gQ--k-30" value="process 1" style="swimlane;childLayout=stackLayout;horizontal=1;startSize=30;horizontalStack=0;rounded=1;fontSize=14;fontStyle=0;strokeWidth=2;resizeParent=0;resizeLast=1;shadow=0;dashed=0;align=center;" vertex="1" parent="1">
          <mxGeometry x="810" y="170" width="160" height="90" as="geometry" />
        </mxCell>
        <mxCell id="Up77bsWCeMannX5gQ--k-31" value="Rewriting" style="align=center;strokeColor=none;fillColor=none;spacingLeft=4;fontSize=12;verticalAlign=top;resizable=0;rotatable=0;part=1;" vertex="1" parent="Up77bsWCeMannX5gQ--k-30">
          <mxGeometry y="30" width="160" height="60" as="geometry" />
        </mxCell>
        <mxCell id="Up77bsWCeMannX5gQ--k-32" style="edgeStyle=orthogonalEdgeStyle;rounded=0;orthogonalLoop=1;jettySize=auto;html=1;exitX=0.5;exitY=1;exitDx=0;exitDy=0;" edge="1" parent="Up77bsWCeMannX5gQ--k-30" source="Up77bsWCeMannX5gQ--k-31" target="Up77bsWCeMannX5gQ--k-31">
          <mxGeometry relative="1" as="geometry" />
        </mxCell>
        <mxCell id="Up77bsWCeMannX5gQ--k-40" value="process 1" style="swimlane;childLayout=stackLayout;horizontal=1;startSize=30;horizontalStack=0;rounded=1;fontSize=14;fontStyle=0;strokeWidth=2;resizeParent=0;resizeLast=1;shadow=0;dashed=0;align=center;" vertex="1" parent="1">
          <mxGeometry x="810" y="330" width="160" height="90" as="geometry" />
        </mxCell>
        <mxCell id="Up77bsWCeMannX5gQ--k-41" value="Add pictures to News Story" style="align=center;strokeColor=none;fillColor=none;spacingLeft=4;fontSize=12;verticalAlign=top;resizable=0;rotatable=0;part=1;" vertex="1" parent="Up77bsWCeMannX5gQ--k-40">
          <mxGeometry y="30" width="160" height="60" as="geometry" />
        </mxCell>
        <mxCell id="Up77bsWCeMannX5gQ--k-42" style="edgeStyle=orthogonalEdgeStyle;rounded=0;orthogonalLoop=1;jettySize=auto;html=1;exitX=0.5;exitY=1;exitDx=0;exitDy=0;" edge="1" parent="Up77bsWCeMannX5gQ--k-40" source="Up77bsWCeMannX5gQ--k-41" target="Up77bsWCeMannX5gQ--k-41">
          <mxGeometry relative="1" as="geometry" />
        </mxCell>
        <mxCell id="Up77bsWCeMannX5gQ--k-43" value="process 1" style="swimlane;childLayout=stackLayout;horizontal=1;startSize=30;horizontalStack=0;rounded=1;fontSize=14;fontStyle=0;strokeWidth=2;resizeParent=0;resizeLast=1;shadow=0;dashed=0;align=center;" vertex="1" parent="1">
          <mxGeometry x="585" y="330" width="160" height="90" as="geometry" />
        </mxCell>
        <mxCell id="Up77bsWCeMannX5gQ--k-44" value="Approval by Editor-in-Chief" style="align=center;strokeColor=none;fillColor=none;spacingLeft=4;fontSize=12;verticalAlign=top;resizable=0;rotatable=0;part=1;" vertex="1" parent="Up77bsWCeMannX5gQ--k-43">
          <mxGeometry y="30" width="160" height="60" as="geometry" />
        </mxCell>
        <mxCell id="Up77bsWCeMannX5gQ--k-45" style="edgeStyle=orthogonalEdgeStyle;rounded=0;orthogonalLoop=1;jettySize=auto;html=1;exitX=0.5;exitY=1;exitDx=0;exitDy=0;" edge="1" parent="Up77bsWCeMannX5gQ--k-43" source="Up77bsWCeMannX5gQ--k-44" target="Up77bsWCeMannX5gQ--k-44">
          <mxGeometry relative="1" as="geometry" />
        </mxCell>
        <mxCell id="Up77bsWCeMannX5gQ--k-49" style="edgeStyle=orthogonalEdgeStyle;rounded=0;orthogonalLoop=1;jettySize=auto;html=1;entryX=1;entryY=0.5;entryDx=0;entryDy=0;" edge="1" parent="1" source="Up77bsWCeMannX5gQ--k-46" target="Up77bsWCeMannX5gQ--k-33">
          <mxGeometry relative="1" as="geometry" />
        </mxCell>
        <mxCell id="Up77bsWCeMannX5gQ--k-46" value="process 1" style="swimlane;childLayout=stackLayout;horizontal=1;startSize=30;horizontalStack=0;rounded=1;fontSize=14;fontStyle=0;strokeWidth=2;resizeParent=0;resizeLast=1;shadow=0;dashed=0;align=center;" vertex="1" parent="1">
          <mxGeometry x="360" y="330" width="160" height="90" as="geometry" />
        </mxCell>
        <mxCell id="Up77bsWCeMannX5gQ--k-47" value="Publish" style="align=center;strokeColor=none;fillColor=none;spacingLeft=4;fontSize=12;verticalAlign=top;resizable=0;rotatable=0;part=1;" vertex="1" parent="Up77bsWCeMannX5gQ--k-46">
          <mxGeometry y="30" width="160" height="60" as="geometry" />
        </mxCell>
        <mxCell id="Up77bsWCeMannX5gQ--k-48" style="edgeStyle=orthogonalEdgeStyle;rounded=0;orthogonalLoop=1;jettySize=auto;html=1;exitX=0.5;exitY=1;exitDx=0;exitDy=0;" edge="1" parent="Up77bsWCeMannX5gQ--k-46" source="Up77bsWCeMannX5gQ--k-47" target="Up77bsWCeMannX5gQ--k-47">
          <mxGeometry relative="1" as="geometry" />
        </mxCell>
        <mxCell id="Up77bsWCeMannX5gQ--k-50" style="edgeStyle=orthogonalEdgeStyle;rounded=0;orthogonalLoop=1;jettySize=auto;html=1;entryX=1;entryY=0.5;entryDx=0;entryDy=0;" edge="1" parent="1" source="Up77bsWCeMannX5gQ--k-47" target="Up77bsWCeMannX5gQ--k-34">
          <mxGeometry relative="1" as="geometry">
            <Array as="points">
              <mxPoint x="440" y="480" />
            </Array>
          </mxGeometry>
        </mxCell>
        <mxCell id="Up77bsWCeMannX5gQ--k-51" style="edgeStyle=orthogonalEdgeStyle;rounded=0;orthogonalLoop=1;jettySize=auto;html=1;entryX=0.5;entryY=0;entryDx=0;entryDy=0;" edge="1" parent="1" source="Up77bsWCeMannX5gQ--k-31" target="Up77bsWCeMannX5gQ--k-40">
          <mxGeometry relative="1" as="geometry" />
        </mxCell>
        <mxCell id="Up77bsWCeMannX5gQ--k-52" style="edgeStyle=orthogonalEdgeStyle;rounded=0;orthogonalLoop=1;jettySize=auto;html=1;entryX=1;entryY=0.5;entryDx=0;entryDy=0;" edge="1" parent="1" source="Up77bsWCeMannX5gQ--k-41" target="Up77bsWCeMannX5gQ--k-44">
          <mxGeometry relative="1" as="geometry" />
        </mxCell>
        <mxCell id="Up77bsWCeMannX5gQ--k-53" style="edgeStyle=orthogonalEdgeStyle;rounded=0;orthogonalLoop=1;jettySize=auto;html=1;" edge="1" parent="1" source="Up77bsWCeMannX5gQ--k-44" target="Up77bsWCeMannX5gQ--k-47">
          <mxGeometry relative="1" as="geometry" />
        </mxCell>
      </root>
    </mxGraphModel>
  </diagram>
</mxfile>
